<?xml version="1.0" standalone="no"?>
<!DOCTYPE svg PUBLIC "-//W3C//DTD SVG 20010904//EN"
 "http://www.w3.org/TR/2001/REC-SVG-20010904/DTD/svg10.dtd">
<svg version="1.0" xmlns="http://www.w3.org/2000/svg"
 width="256.000000pt" height="256.000000pt" viewBox="0 0 256.000000 256.000000"
 preserveAspectRatio="xMidYMid meet">
<metadata>
Created by potrace 1.11, written by Peter Selinger 2001-2013
</metadata>
<g transform="translate(0.000000,256.000000) scale(0.100000,-0.100000)"
fill="#000000" stroke="none">
<path d="M1197 2464 c-2 -2 -25 -6 -52 -8 -121 -13 -181 -29 -305 -79 -67 -27
-207 -102 -220 -117 -3 -4 -27 -21 -54 -40 -47 -32 -158 -137 -201 -190 -120
-150 -224 -383 -252 -565 -9 -61 -10 -305 -1 -360 77 -463 401 -832 843 -960
50 -14 106 -29 125 -32 49 -9 325 -10 385 0 43 6 73 13 185 41 8 2 56 21 105
43 262 113 482 330 603 594 34 73 44 100 58 154 1 6 9 37 18 70 41 151 39 386
-5 560 -23 90 -71 212 -106 267 -13 21 -23 40 -23 44 0 11 -91 136 -130 178
-195 214 -472 362 -736 392 -54 6 -233 12 -237 8z"/>
</g>
</svg>
